<?xml version="1.0" encoding="utf-8"?>
<!-- Generator: Adobe Illustrator 25.2.2, SVG Export Plug-In . SVG Version: 6.00 Build 0)  -->
<svg version="1.1" id="Layer_1" xmlns="http://www.w3.org/2000/svg" xmlns:xlink="http://www.w3.org/1999/xlink" x="0px" y="0px"
	 viewBox="0 0 300.47 222.33" style="enable-background:new 0 0 300.47 222.33;" xml:space="preserve">
<style type="text/css">
	.st0{fill:#FFFFFF;}
</style>
<g>
	<path class="st0" d="M160.87,152.96c-3.43,0-6.83-0.8-10.2-2.39c-3.37-1.59-6.53-3.92-9.47-6.99c-4.29-4.41-8-9.71-11.12-15.9
		c-3.13-6.19-5.79-12.56-8-19.12c-2.21-6.56-3.92-12.56-5.15-18.02c-1.23-5.45-2.09-9.65-2.57-12.59
		c-4.54,8.7-9.22,17.31-14.06,25.83c-4.84,8.52-11,16.88-18.48,25.09c-7.11,7.72-14.89,13.58-23.35,17.56s-17.22,5.98-26.29,5.98
		c-2.82,0-5.7-0.18-8.64-0.55c-8.09-0.98-14.04-3.31-17.83-6.99c-3.8-3.68-5.7-7.6-5.7-11.77c0-4.53,2.02-8.64,6.07-12.32
		c4.04-3.68,9.8-5.52,17.28-5.52c2.45,0,5.08,0.25,7.91,0.74c2.82,0.49,5.76,1.29,8.82,2.39c1.35,0.49,2.02,1.04,2.02,1.65
		c0,0.49-0.49,0.74-1.47,0.74c-0.61,0-1.1-0.06-1.47-0.18c-4.04-1.47-7.66-2.21-10.85-2.21c-5.15,0-9.07,1.5-11.77,4.5
		c-2.7,3-4.04,6.28-4.04,9.84c0,3.43,1.47,6.62,4.41,9.56c2.94,2.94,7.47,4.41,13.6,4.41c7.72,0,14.83-1.81,21.33-5.42
		c6.49-3.61,12.56-8.58,18.2-14.89c5.64-6.31,11.03-13.48,16.18-21.51c5.15-8.03,10.17-16.39,15.08-25.1
		c8.21-14.58,15.66-27.85,22.34-39.8c6.68-11.95,13.76-22.09,21.23-30.43c-3.31-0.37-6.68-0.61-10.11-0.74
		c-3.43-0.12-6.93-0.18-10.48-0.18c-7.72,0-15.72,0.4-23.99,1.2c-8.27,0.8-16.27,2.05-23.99,3.77c-10.42,2.21-19.37,5.49-26.84,9.84
		c-7.48,4.35-13.39,9.19-17.74,14.52c-4.35,5.33-7.08,10.69-8.18,16.09c-0.37,1.96-0.55,3.86-0.55,5.7c0,6.25,2.08,11.09,6.25,14.52
		c4.17,3.43,8.95,5.15,14.34,5.15c3.43,0,6.89-0.7,10.39-2.11c3.49-1.41,6.65-3.65,9.47-6.71c2.33-2.45,4.04-4.75,5.15-6.89
		c1.1-2.14,1.71-3.77,1.84-4.87c0.12-1.71,0.49-2.57,1.1-2.57c0.37,0,0.7,0.31,1.01,0.92c0.3,0.61,0.4,1.23,0.28,1.84
		c-0.49,2.82-1.35,5.58-2.57,8.27c-1.23,2.7-2.7,4.96-4.41,6.8c-3.43,3.56-7.35,6.19-11.77,7.91c-4.41,1.72-8.64,2.57-12.69,2.57
		c-4.78,0-9.28-1.04-13.51-3.13c-4.23-2.08-7.63-5.12-10.2-9.1c-2.57-3.98-3.86-8.92-3.86-14.8c0-6.86,2.39-13.88,7.17-21.05
		s11.98-13.51,21.6-19.03c9.62-5.52,21.6-9.31,35.94-11.4c7.23-0.98,14.25-1.75,21.05-2.3s13.39-0.83,19.76-0.83
		c5.15,0,10.17,0.18,15.08,0.55c4.9,0.37,9.74,0.86,14.52,1.47C152.1,1.65,154.25,0,155.35,0c0.86,0,1.29,0.68,1.29,2.02
		c0,0.49-0.06,1.1-0.18,1.84c-0.12,0.74-0.31,1.47-0.55,2.21c3.31,0.49,6.53,1.01,9.65,1.56c3.13,0.55,5.91,1.2,8.37,1.93
		c9.68,2.7,16.76,6.22,21.23,10.57c4.47,4.35,6.71,9.04,6.71,14.06c0,5.39-1.07,12.42-7.26,16.18c-5.98,3.63-12.83,8.81-20.41,14.34
		c-7.84,5.72-19.03,7.23-30.79,9.19c-3.8,0.61-7.14,1.04-10.02,1.29c-2.88,0.25-5.36,0.43-7.45,0.55c0.24,1.23,0.8,3.8,1.65,7.72
		c0.86,3.92,2.08,8.55,3.68,13.88c1.59,5.33,3.65,10.94,6.16,16.82c2.51,5.88,5.54,11.46,9.1,16.73c2.82,4.17,5.7,7.6,8.64,10.3
		c2.94,2.7,6.07,4.04,9.38,4.04c2.08,0,4.2-0.67,6.53-1.65c2.19-0.93,3.76-4.28,7.08-5.33c5.19-1.64,5.61-6.28,8-10.02
		c2.39-3.74,4.44-7.26,6.16-10.57c1.71-3.31,2.88-5.64,3.49-6.99c0.98-1.71,2.02-2.57,3.13-2.57c0.37,0,0.55,0.25,0.55,0.74
		c0,0.25-0.18,0.86-0.55,1.84c-0.61,1.35-1.53,3.4-2.76,6.16c-1.23,2.76-2.7,5.79-4.41,9.1c-1.72,3.31-3.56,6.56-5.52,9.74
		c-1.96,3.19-3.92,5.88-5.88,8.09c-2.82,3.06-5.98,5.36-9.47,6.89C167.39,152.19,164.05,152.96,160.87,152.96z M118.21,70.78
		c3.55-0.61,7.35-1.04,11.4-1.29c4.04-0.24,8.03-0.61,11.95-1.1c6.37-0.86,12.38-2.54,18.02-5.06c5.64-2.51,10.63-5.54,14.98-9.1
		c4.35-3.55,7.75-7.32,10.2-11.31c2.45-3.98,3.68-7.81,3.68-11.49c0-8.33-5.58-14.09-16.73-17.28c-2.21-0.61-5.06-1.22-8.55-1.84
		c-3.49-0.61-6.65-1.16-9.47-1.65c-5.88,10.05-11.92,19.92-18.11,29.6C129.4,49.95,123.61,60.12,118.21,70.78z"/>
</g>
<g>
	<path class="st0" d="M197.88,48.6c0.61,0,1.17,0,1.65,0c0.49,0,0.98,0.06,1.47,0.18c5.88,1.1,8.82,6.37,8.82,15.81
		c0,7.6-1.9,17.83-5.7,30.7c-3.8,12.87-9.56,28.37-17.28,46.51c-2.21,5.15-4.41,10.94-6.62,17.37c-2.21,6.43-4.07,12.9-5.61,19.4
		c-1.53,6.49-2.3,12.38-2.3,17.65c0,3.8,0.49,7.14,1.47,10.02c0.98,2.88,2.64,4.99,4.96,6.34c2.7,1.71,5.67,2.97,8.92,3.77
		c3.25,0.8,6.65,1.19,10.2,1.19c6.37,0,13.05-1.13,20.04-3.4c6.99-2.27,13.91-5.42,20.77-9.47c6.87-4.04,13.36-8.76,19.49-14.16
		c6.13-5.39,11.55-11.25,16.27-17.56c4.72-6.31,8.3-12.84,10.76-19.58c1.59-4.54,2.79-8.82,3.58-12.87c0.8-4.04,1.2-7.85,1.2-11.4
		c0-7.35-1.47-13.51-4.41-18.48c-2.94-4.96-6.77-8.67-11.49-11.12c-4.72-2.45-9.71-3.68-14.98-3.68c-5.15,0-10.26,1.26-15.35,3.77
		c-5.08,2.51-9.68,5.85-13.79,10.02c-4.1,4.17-7.38,8.76-9.84,13.79c-2.45,5.02-3.68,10.11-3.68,15.26c0,4.17,0.86,7.81,2.57,10.94
		c1.72,3.13,4.6,4.69,8.64,4.69c0.86,0,1.75-0.06,2.67-0.18c0.92-0.12,1.87-0.37,2.85-0.74c1.23-0.37,2.21-0.55,2.94-0.55
		c0.61,0,0.92,0.18,0.92,0.55c0,0.24-0.24,0.64-0.74,1.2c-0.49,0.55-1.16,1.01-2.02,1.38c-3.55,1.59-6.86,2.39-9.93,2.39
		c-5.02,0-8.95-1.9-11.77-5.7c-2.82-3.8-4.23-8.4-4.23-13.79c0-5.88,1.69-11.65,5.06-17.28c3.37-5.64,7.75-10.76,13.15-15.35
		c5.39-4.6,11.21-8.27,17.47-11.03c6.25-2.76,12.26-4.14,18.02-4.14c6.5,0,12.69,1.78,18.57,5.33c5.88,3.55,10.66,8.55,14.34,14.98
		c3.68,6.43,5.52,13.94,5.52,22.52c0,3.92-0.46,8.03-1.38,12.32c-0.92,4.29-2.36,8.7-4.32,13.24c-4.04,9.31-9.68,17.83-16.91,25.55
		c-7.23,7.72-15.32,14.37-24.27,19.95c-8.95,5.58-18.08,9.86-27.39,12.87c-9.31,3-18.2,4.5-26.66,4.5c-7.47,0-14.16-1.29-20.04-3.86
		c-6.49-2.82-11.09-6.99-13.79-12.5c-2.69-5.52-4.04-11.71-4.04-18.57c0-7.48,1.26-15.41,3.77-23.81c2.51-8.4,5.67-16.39,9.47-23.99
		c3.92-7.97,7.48-16.27,10.66-24.91c3.19-8.64,5.88-16.85,8.09-24.64c2.21-7.78,3.8-14.5,4.78-20.13c0.25-1.35,0.43-2.61,0.55-3.77
		c0.12-1.16,0.18-2.23,0.18-3.22c0-5.76-1.9-8.64-5.7-8.64c-2.57,0-5.64,1.07-9.19,3.22c-3.55,2.15-7.26,4.81-11.12,8
		c-3.86,3.19-7.57,6.53-11.12,10.02c-3.55,3.49-6.62,6.62-9.19,9.38s-4.35,4.69-5.33,5.79c-10.3,12.01-18.38,24.05-24.27,36.13
		c-5.88,12.07-8.82,22.95-8.82,32.63c0,2.21,0.18,4.41,0.55,6.62c0.49,3.19,1.17,5.39,2.02,6.62c0.86,1.22,1.84,1.96,2.94,2.21
		c1.1,0.24,2.39,0.49,3.86,0.74c1.59,0.24,2.79,0.74,3.59,1.47c0.8,0.74,1.19,1.41,1.19,2.02c0,1.22-1.04,1.84-3.13,1.84
		c-0.24,0-0.58-0.03-1.01-0.09c-0.43-0.06-0.89-0.16-1.38-0.28c-2.33-0.61-4.9-1.96-7.72-4.04c-2.82-2.09-5.27-4.9-7.35-8.46
		c-2.08-3.56-3.13-8.03-3.13-13.42c0-5.03,1.17-10.6,3.49-16.73c3.43-8.95,7.91-17.74,13.42-26.38s11.61-16.73,18.29-24.27
		c6.68-7.54,13.51-14.22,20.5-20.04c6.99-5.82,13.7-10.39,20.13-13.7S192.86,48.6,197.88,48.6z"/>
</g>
</svg>
